{
  "accessors": [
    {
      "bufferView": 2,
      "componentType": 5126,
      "count": 16761,
      "max": [
        0.9928274154663086,
        3.424910068511963,
        3.588818073272705
      ],
      "min": [
        -1.470947027206421,
        0.057851001620292664,
        -2.7268869876861572
      ],
      "type": "VEC3"
    },
    {
      "bufferView": 2,
      "byteOffset": 201132,
      "componentType": 5126,
      "count": 16761,
      "max": [
        0.999998927116394,
        1.0,
        0.9999882578849792
      ],
      "min": [
        -1.0,
        -1.0,
        -1.0
      ],
      "type": "VEC3"
    },
    {
      "bufferView": 3,
      "componentType": 5126,
      "count": 16761,
      "max": [
        1.0,
        1.0,
        0.9999999403953552,
        1.0
      ],
      "min": [
        -0.9999982118606567,
        -1.0,
        -0.9999986886978149,
        1.0
      ],
      "type": "VEC4"
    },
    {
      "bufferView": 1,
      "componentType": 5126,
      "count": 16761,
      "max": [
        0.9999160170555115,
        1.0
      ],
      "min": [
        0.0,
        0.0
      ],
      "type": "VEC2"
    },
    {
      "bufferView": 0,
      "componentType": 5125,
      "count": 82848,
      "type": "SCALAR"
    },
    {
      "bufferView": 2,
      "byteOffset": 402264,
      "componentType": 5126,
      "count": 1498,
      "max": [
        -4.015730857849121,
        1.4581990242004395,
        1.6152089834213257
      ],
      "min": [
        -6.471015930175781,
        0.1208140030503273,
        -2.7011990547180176
      ],
      "type": "VEC3"
    },
    {
      "bufferView": 2,
      "byteOffset": 420240,
      "componentType": 5126,
      "count": 1498,
      "max": [
        0.9997859597206116,
        1.0,
        0.9997072219848633
      ],
      "min": [
        -0.9978677034378052,
        -1.0,
        -0.9952799677848816
      ],
      "type": "VEC3"
    },
    {
      "bufferView": 3,
      "byteOffset": 268176,
      "componentType": 5126,
      "count": 1498,
      "max": [
        0.9999590516090393,
        0.9965953826904297,
        0.9998850226402283,
        1.0
      ],
      "min": [
        -0.9837782979011536,
        -0.9784225821495056,
        -0.6469995975494385,
        1.0
      ],
      "type": "VEC4"
    },
    {
      "bufferView": 1,
      "byteOffset": 134088,
      "componentType": 5126,
      "count": 1498,
      "max": [
        0.721992015838623,
        0.9604780077934265
      ],
      "min": [
        0.0,
        0.0
      ],
      "type": "VEC2"
    },
    {
      "bufferView": 0,
      "byteOffset": 331392,
      "componentType": 5125,
      "count": 8040,
      "type": "SCALAR"
    },
    {
      "bufferView": 2,
      "byteOffset": 438216,
      "componentType": 5126,
      "count": 1778,
      "max": [
        -14.515884399414063,
        1.344385027885437,
        3.318376064300537
      ],
      "min": [
        -15.855698585510254,
        0.638139009475708,
        -2.1805360317230225
      ],
      "type": "VEC3"
    },
    {
      "bufferView": 2,
      "byteOffset": 459552,
      "componentType": 5126,
      "count": 1778,
      "max": [
        0.9988018870353699,
        0.9999569058418274,
        0.9970581531524658
      ],
      "min": [
        -0.9998538494110107,
        -0.9999599456787109,
        -0.9897573590278625
      ],
      "type": "VEC3"
    },
    {
      "bufferView": 3,
      "byteOffset": 292144,
      "componentType": 5126,
      "count": 1778,
      "max": [
        0.9999992847442627,
        0.9999603629112244,
        0.6853863596916199,
        1.0
      ],
      "min": [
        -0.9999995827674866,
        -0.9999011158943176,
        -0.694904625415802,
        1.0
      ],
      "type": "VEC4"
    },
    {
      "bufferView": 1,
      "byteOffset": 146072,
      "componentType": 5126,
      "count": 1778,
      "max": [
        0.8985840082168579,
        1.0
      ],
      "min": [
        0.21224500238895416,
        3.000000106112566e-06
      ],
      "type": "VEC2"
    },
    {
      "bufferView": 0,
      "byteOffset": 363552,
      "componentType": 5125,
      "count": 9648,
      "type": "SCALAR"
    },
    {
      "bufferView": 2,
      "byteOffset": 480888,
      "componentType": 5126,
      "count": 6305,
      "max": [
        1.0100699663162231,
        1.4828779697418213,
        12.63318920135498
      ],
      "min": [
        -1.4857109785079956,
        0.05270000174641609,
        7.8781561851501465
      ],
      "type": "VEC3"
    },
    {
      "bufferView": 2,
      "byteOffset": 556548,
      "componentType": 5126,
      "count": 6305,
      "max": [
        0.9998335242271423,
        0.99998939037323,
        0.999984622001648
      ],
      "min": [
        -0.9998189806938171,
        -1.0,
        -0.9999901056289673
      ],
      "type": "VEC3"
    },
    {
      "bufferView": 3,
      "byteOffset": 320592,
      "componentType": 5126,
      "count": 6305,
      "max": [
        0.9882667064666748,
        0.9999231100082397,
        1.0,
        1.0
      ],
      "min": [
        -0.9968823194503784,
        -0.9998493194580078,
        -0.9702416658401489,
        1.0
      ],
      "type": "VEC4"
    },
    {
      "bufferView": 1,
      "byteOffset": 160296,
      "componentType": 5126,
      "count": 6305,
      "max": [
        0.7871350049972534,
        0.7986220121383667
      ],
      "min": [
        0.09136100113391876,
        1.9999999949504854e-06
      ],
      "type": "VEC2"
    },
    {
      "bufferView": 0,
      "byteOffset": 402144,
      "componentType": 5125,
      "count": 35544,
      "type": "SCALAR"
    }
  ],
  "asset": {
    "extras": {
      "author": "BlackSpire (https://sketchfab.com/blackspire)",
      "license": "COPYRIGHT TO BlackSpire",
      "source": "https://sketchfab.com/3d-models/common-mesh-lp-4b1ab5198e3c499792bef9048604abef",
      "title": "Common_Mesh_LP"
    },
    "generator": "Sketchfab-11.53.2",
    "version": "2.0"
  },
  "bufferViews": [
    {
      "buffer": 0,
      "byteLength": 544320,
      "name": "floatBufferViews",
      "target": 34963
    },
    {
      "buffer": 0,
      "byteLength": 210736,
      "byteOffset": 544320,
      "byteStride": 8,
      "name": "floatBufferViews",
      "target": 34962
    },
    {
      "buffer": 0,
      "byteLength": 632208,
      "byteOffset": 755056,
      "byteStride": 12,
      "name": "floatBufferViews",
      "target": 34962
    },
    {
      "buffer": 0,
      "byteLength": 421472,
      "byteOffset": 1387264,
      "byteStride": 16,
      "name": "floatBufferViews",
      "target": 34962
    }
  ],
  "buffers": [
    {
      "byteLength": 1808736,
      "uri": "scene.bin"
    }
  ],
  "images": [
    {
      "uri": "textures/Common_UV1_baseColor.png"
    },
    {
      "uri": "textures/Common_UV1_metallicRoughness.png"
    },
    {
      "uri": "textures/Common_UV1_normal.png"
    },
    {
      "uri": "textures/Common_UV2_baseColor.png"
    },
    {
      "uri": "textures/Common_UV2_metallicRoughness.png"
    },
    {
      "uri": "textures/Common_UV2_normal.png"
    }
  ],
  "materials": [
    {
      "doubleSided": true,
      "name": "Common_UV1",
      "normalTexture": {
        "index": 2
      },
      "occlusionTexture": {
        "index": 1
      },
      "pbrMetallicRoughness": {
        "baseColorTexture": {
          "index": 0
        },
        "metallicRoughnessTexture": {
          "index": 1
        }
      }
    },
    {
      "alphaMode": "BLEND",
      "name": "Common_UV2",
      "normalTexture": {
        "index": 5,
        "scale": 0.3233451980789193
      },
      "occlusionTexture": {
        "index": 4
      },
      "pbrMetallicRoughness": {
        "baseColorTexture": {
          "index": 3
        },
        "metallicRoughnessTexture": {
          "index": 4
        }
      }
    }
  ],
  "meshes": [
    {
      "name": "Common_Scarpa_Common_UV1_0",
      "primitives": [
        {
          "attributes": {
            "NORMAL": 1,
            "POSITION": 0,
            "TANGENT": 2,
            "TEXCOORD_0": 3
          },
          "indices": 4,
          "material": 0,
          "mode": 4
        }
      ]
    },
    {
      "name": "Common_Tacco_Common_UV2_0",
      "primitives": [
        {
          "attributes": {
            "NORMAL": 6,
            "POSITION": 5,
            "TANGENT": 7,
            "TEXCOORD_0": 8
          },
          "indices": 9,
          "material": 1,
          "mode": 4
        }
      ]
    },
    {
      "name": "Common_Soletta_Common_UV2_0",
      "primitives": [
        {
          "attributes": {
            "NORMAL": 11,
            "POSITION": 10,
            "TANGENT": 12,
            "TEXCOORD_0": 13
          },
          "indices": 14,
          "material": 1,
          "mode": 4
        }
      ]
    },
    {
      "name": "Common_Punta_Common_UV1_0",
      "primitives": [
        {
          "attributes": {
            "NORMAL": 16,
            "POSITION": 15,
            "TANGENT": 17,
            "TEXCOORD_0": 18
          },
          "indices": 19,
          "material": 0,
          "mode": 4
        }
      ]
    }
  ],
  "nodes": [
    {
      "children": [
        1
      ],
      "matrix": [
        2.7819745540618896,
        0.0,
        0.0,
        0.0,
        0.0,
        6.177224407681624e-16,
        -2.7819745540618896,
        0.0,
        0.0,
        2.7819745540618896,
        6.177224407681624e-16,
        0.0,
        0.0,
        0.0,
        0.0,
        1.0
      ],
      "name": "Sketchfab_model"
    },
    {
      "children": [
        2
      ],
      "matrix": [
        0.009999999776482582,
        0.0,
        0.0,
        0.0,
        0.0,
        0.0,
        0.009999999776482582,
        0.0,
        0.0,
        -0.009999999776482582,
        0.0,
        0.0,
        0.0,
        0.0,
        0.0,
        1.0
      ],
      "name": "b94c28e08f634b9888baa0b5b44f9035.fbx"
    },
    {
      "children": [
        3
      ],
      "name": "RootNode"
    },
    {
      "children": [
        4,
        6,
        8,
        10
      ],
      "name": "Common_Mesh_LP"
    },
    {
      "children": [
        5
      ],
      "name": "Common_Scarpa"
    },
    {
      "mesh": 0,
      "name": "Common_Scarpa_Common_UV1_0"
    },
    {
      "children": [
        7
      ],
      "matrix": [
        1.0,
        0.0,
        0.0,
        0.0,
        0.0,
        1.0,
        0.0,
        0.0,
        0.0,
        0.0,
        1.0,
        0.0,
        5.0,
        0.0,
        0.0,
        1.0
      ],
      "name": "Common_Tacco"
    },
    {
      "mesh": 1,
      "name": "Common_Tacco_Common_UV2_0"
    },
    {
      "children": [
        9
      ],
      "matrix": [
        1.0,
        0.0,
        0.0,
        0.0,
        0.0,
        1.0,
        0.0,
        0.0,
        0.0,
        0.0,
        1.0,
        0.0,
        15.0,
        0.0,
        0.0,
        1.0
      ],
      "name": "Common_Soletta"
    },
    {
      "mesh": 2,
      "name": "Common_Soletta_Common_UV2_0"
    },
    {
      "children": [
        11
      ],
      "matrix": [
        1.0,
        0.0,
        0.0,
        0.0,
        0.0,
        1.0,
        0.0,
        0.0,
        0.0,
        0.0,
        1.0,
        0.0,
        0.0,
        0.0,
        -9.0,
        1.0
      ],
      "name": "Common_Punta"
    },
    {
      "mesh": 3,
      "name": "Common_Punta_Common_UV1_0"
    }
  ],
  "samplers": [
    {
      "magFilter": 9729,
      "minFilter": 9987,
      "wrapS": 10497,
      "wrapT": 10497
    }
  ],
  "scene": 0,
  "scenes": [
    {
      "name": "Sketchfab_Scene",
      "nodes": [
        0
      ]
    }
  ],
  "textures": [
    {
      "sampler": 0,
      "source": 0
    },
    {
      "sampler": 0,
      "source": 1
    },
    {
      "sampler": 0,
      "source": 2
    },
    {
      "sampler": 0,
      "source": 3
    },
    {
      "sampler": 0,
      "source": 4
    },
    {
      "sampler": 0,
      "source": 5
    }
  ]
}
